<svg width="44" height="44" viewBox="0 0 44 44" fill="none" xmlns="http://www.w3.org/2000/svg">
<rect width="44" height="44" fill="white"/>
<path d="M7 11.069C7 9.92631 7.93436 9 9.08696 9H28.913C30.0656 9 31 9.92631 31 11.069V36.931C31 38.0737 30.0656 39 28.913 39H9.08696C7.93436 39 7 38.0737 7 36.931V11.069Z" fill="#BEECF3"/>
<path d="M11 7.06896C11 5.92631 11.9344 5 13.087 5H32.913C34.0656 5 35 5.92631 35 7.06897V32.931C35 34.0737 34.0656 35 32.913 35H13.087C11.9344 35 11 34.0737 11 32.931V7.06896Z" fill="#17AEB5" fill-opacity="0.7"/>
<path d="M31.75 13C31.3358 13 31 12.6642 31 12.25L31 7.75C31 7.33579 31.3358 7 31.75 7L37 7L36.3147 10L37 13L31.75 13Z" fill="#009DA5"/>
<circle cx="15.5" cy="10.5" r="1.5" fill="white"/>
<circle cx="15.5" cy="16.5" r="1.5" fill="white"/>
<circle cx="15.5" cy="22.5" r="1.5" fill="#009DA5"/>
<circle cx="15.5" cy="28.5" r="1.5" fill="#009DA5"/>
<path d="M19 10.6C19 10.2686 19.2686 10 19.6 10H24.4C24.7314 10 25 10.2686 25 10.6C25 10.9314 24.7314 11.2 24.4 11.2H19.6C19.2686 11.2 19 10.9314 19 10.6Z" fill="#BEE9F0"/>
<rect x="19" y="22" width="12" height="1.2" rx="0.6" fill="#BEE9F0"/>
<rect x="19" y="28" width="12" height="1.2" rx="0.6" fill="#BEE9F0"/>
<rect x="19" y="14.8" width="12" height="1.2" rx="0.6" fill="#BEE9F0"/>
<rect x="19" y="17" width="6" height="1.2" rx="0.6" fill="#BEE9F0"/>
</svg>
